# Blender v2.78 (sub 0) OBJ File: 'cup-3.blend'
# www.blender.org
mtllib cup.mtl
o Cylinder
v 0.136895 -0.973538 -0.895871
v 0.201498 1.990613 -1.220653
v 0.773274 -0.973538 -0.470655
v 1.048612 1.990613 -0.654630
v 0.922590 -0.973538 0.280005
v 1.247373 1.990613 0.344608
v 0.497375 -0.973538 0.916384
v 0.681349 1.990613 1.191722
v -0.253286 -0.973538 1.065700
v -0.317889 1.990613 1.390483
v -0.889665 -0.973538 0.640484
v -1.165003 1.990613 0.824459
v -1.038980 -0.973538 -0.110177
v -1.363763 1.990613 -0.174780
v -0.613764 -0.973538 -0.746556
v -0.797739 1.990613 -1.021893
v 0.190576 1.990613 -1.165744
v 1.002062 1.990613 -0.623526
v 1.192463 1.990613 0.333686
v 0.650246 1.990613 1.145172
v -0.306967 1.990613 1.335573
v -1.118453 1.990613 0.793355
v -1.308854 1.990613 -0.163858
v -0.766635 1.990613 -0.975343
v 0.130735 -0.860439 -0.864899
v 0.747018 -0.860439 -0.453112
v 0.891619 -0.860439 0.273844
v 0.479831 -0.860439 0.890128
v -0.247125 -0.860439 1.034729
v -0.863409 -0.860439 0.622941
v -1.008009 -0.860439 -0.104016
v -0.596221 -0.860439 -0.720300
v -0.058195 -0.860439 0.084915
v -0.058195 -0.973538 0.084915
vt 0.6393 0.3551
vt 0.7584 0.3551
vt 0.7328 0.7101
vt 0.6434 0.7101
vt 0.8810 0.0000
vt 1.0000 0.0001
vt 0.9744 0.3550
vt 0.8849 0.3550
vt 0.1458 0.3172
vt 0.1465 0.3106
vt 0.2605 0.2766
vt 0.2648 0.2818
vt 0.3235 0.3552
vt 0.4332 0.3551
vt 0.4370 0.7101
vt 0.3546 0.7102
vt 0.5522 0.3552
vt 0.5265 0.7102
vt 0.3235 0.0001
vt 0.4332 0.0000
vt 0.4371 0.3550
vt 0.3547 0.3551
vt 0.5522 0.0001
vt 0.5265 0.3550
vt 0.3167 0.1736
vt 0.3235 0.1742
vt 0.0216 0.3173
vt 0.1356 0.3173
vt 0.1319 0.6586
vt 0.0453 0.6586
vt 0.0000 0.1430
vt 0.0068 0.1437
vt 0.0414 0.2555
vt 0.0361 0.2597
vt 0.2821 0.0618
vt 0.2874 0.0575
vt 0.0586 0.0354
vt 0.0630 0.0406
vt 0.6618 0.0000
vt 0.6582 0.3413
vt 0.1770 0.0067
vt 0.1777 0.0000
vt 0.1975 1.0000
vt 0.0835 0.9999
vt 0.0872 0.6586
vt 0.1738 0.6587
vt 0.6957 0.7102
vt 0.6841 0.8255
vt 0.6091 0.7359
vt 0.3281 0.7946
vt 0.3874 0.7237
vt 0.4450 0.8293
vt 0.9784 0.6964
vt 0.9546 0.3551
vt 0.7484 0.0000
vt 0.7722 0.3413
vt 0.8644 0.6964
vt 0.8680 0.3551
vt 0.4804 0.7147
vt 0.2407 0.3172
vt 0.2117 0.6586
vt 0.3373 0.8858
vt 0.8018 0.8369
vt 0.7755 0.7520
vt 0.7591 0.9152
vt 0.6725 0.9409
vt 0.5927 0.8991
vt 0.5665 0.8142
vt 0.5526 0.7729
vt 0.5618 0.8641
vt 0.5025 0.9349
vt 0.4095 0.9439
vn 0.9756 -0.1027 -0.1941
vn 0.1941 -0.1027 0.9756
vn 0.0000 1.0000 -0.0000
vn -0.5526 -0.1027 0.8271
vn -0.9756 -0.1027 0.1941
vn -0.8271 -0.1027 -0.5526
vn -0.1941 -0.1027 -0.9756
vn 0.1941 0.0989 0.9760
vn -0.5528 0.0989 0.8274
vn 0.9760 0.0989 -0.1941
vn -0.0000 -1.0000 -0.0000
vn 0.5528 0.0989 -0.8274
vn -0.9760 0.0989 0.1941
vn -0.8274 0.0989 -0.5528
vn 0.8274 0.0989 0.5528
vn -0.1941 0.0989 -0.9760
vn 0.5526 -0.1027 -0.8271
vn 0.8271 -0.1027 0.5526
usemtl Material
s off
f 4/1/1 6/2/1 5/3/1 3/4/1
f 8/5/2 10/6/2 9/7/2 7/8/2
f 8/9/3 20/10/3 21/11/3 10/12/3
f 10/13/4 12/14/4 11/15/4 9/16/4
f 12/14/5 14/17/5 13/18/5 11/15/5
f 14/19/6 16/20/6 15/21/6 13/22/6
f 16/20/7 2/23/7 1/24/7 15/21/7
f 10/12/3 21/11/3 22/25/3 12/26/3
f 17/27/8 24/28/8 32/29/8 25/30/8
f 4/31/3 18/32/3 19/33/3 6/34/3
f 12/26/3 22/25/3 23/35/3 14/36/3
f 4/31/3 2/37/3 17/38/3 18/32/3
f 17/27/9 25/30/9 26/39/9 18/40/9
f 14/36/3 23/35/3 24/41/3 16/42/3
f 23/43/10 22/44/10 30/45/10 31/46/10
f 32/47/3 33/48/3 25/49/3
f 3/50/11 5/51/11 34/52/11
f 22/44/12 21/53/12 29/54/12 30/45/12
f 18/40/13 26/39/13 27/55/13 19/56/13
f 20/57/14 19/56/14 27/55/14 28/58/14
f 5/51/11 7/59/11 34/52/11
f 24/28/15 23/60/15 31/61/15 32/29/15
f 20/57/16 28/58/16 29/54/16 21/53/16
f 1/62/11 3/50/11 34/52/11
f 30/63/3 33/48/3 31/64/3
f 29/65/3 33/48/3 30/63/3
f 28/66/3 33/48/3 29/65/3
f 27/67/3 33/48/3 28/66/3
f 26/68/3 33/48/3 27/67/3
f 25/49/3 33/48/3 26/68/3
f 2/23/17 4/1/17 3/4/17 1/24/17
f 8/9/3 6/34/3 19/33/3 20/10/3
f 7/59/11 9/69/11 34/52/11
f 2/37/3 16/42/3 24/41/3 17/38/3
f 9/69/11 11/70/11 34/52/11
f 11/70/11 13/71/11 34/52/11
f 13/71/11 15/72/11 34/52/11
f 15/72/11 1/62/11 34/52/11
f 31/64/3 33/48/3 32/47/3
f 6/2/18 8/5/18 7/8/18 5/3/18
