# Blender v2.78 (sub 0) OBJ File: 'cup-2.blend'
# www.blender.org
mtllib cup.mtl
o Cylinder
v -0.058195 -0.973538 -0.915085
v -0.058195 1.990613 -1.246231
v 0.136895 -0.973538 -0.895871
v 0.201498 1.990613 -1.220653
v 0.324488 -0.973538 -0.838965
v 0.451212 1.990613 -1.144903
v 0.497375 -0.973538 -0.746555
v 0.681350 1.990613 -1.021892
v 0.648912 -0.973538 -0.622192
v 0.883067 1.990613 -0.856347
v 0.773274 -0.973538 -0.470655
v 1.048612 1.990613 -0.654630
v 0.865684 -0.973538 -0.297769
v 1.171623 1.990613 -0.424492
v 0.922590 -0.973538 -0.110176
v 1.247373 1.990613 -0.174779
v 0.941805 -0.973538 0.084915
v 1.272950 1.990613 0.084915
v 0.922590 -0.973538 0.280005
v 1.247373 1.990613 0.344608
v 0.865684 -0.973538 0.467598
v 1.171623 1.990613 0.594322
v 0.773274 -0.973538 0.640485
v 1.048612 1.990613 0.824460
v 0.648912 -0.973538 0.792022
v 0.883067 1.990613 1.026177
v 0.497375 -0.973538 0.916384
v 0.681349 1.990613 1.191722
v 0.324488 -0.973538 1.008794
v 0.451212 1.990613 1.314733
v 0.136895 -0.973538 1.065700
v 0.201498 1.990613 1.390483
v -0.058196 -0.973538 1.084915
v -0.058196 1.990613 1.416060
v -0.253286 -0.973538 1.065700
v -0.317889 1.990613 1.390483
v -0.440879 -0.973538 1.008794
v -0.567603 1.990613 1.314733
v -0.613766 -0.973538 0.916384
v -0.797741 1.990613 1.191721
v -0.765302 -0.973538 0.792021
v -0.999458 1.990613 1.026176
v -0.889665 -0.973538 0.640484
v -1.165003 1.990613 0.824459
v -0.982075 -0.973538 0.467597
v -1.288014 1.990613 0.594321
v -1.038981 -0.973538 0.280004
v -1.363763 1.990613 0.344607
v -1.058195 -0.973538 0.084914
v -1.389341 1.990613 0.084914
v -1.038980 -0.973538 -0.110177
v -1.363763 1.990613 -0.174780
v -0.982074 -0.973538 -0.297770
v -1.288013 1.990613 -0.424494
v -0.889664 -0.973538 -0.470657
v -1.165001 1.990613 -0.654631
v -0.765301 -0.973538 -0.622193
v -0.999456 1.990613 -0.856348
v -0.613764 -0.973538 -0.746556
v -0.797739 1.990613 -1.021893
v -0.440877 -0.973538 -0.838965
v -0.567601 1.990613 -1.144904
v -0.253284 -0.973538 -0.895871
v -0.317887 1.990613 -1.220653
v 0.190576 1.990613 -1.165744
v -0.058195 1.990613 -1.190246
v 0.429787 1.990613 -1.093180
v 0.650246 1.990613 -0.975342
v 0.843479 1.990613 -0.816760
v 1.002062 1.990613 -0.623526
v 1.119899 1.990613 -0.403068
v 1.192463 1.990613 -0.163857
v 1.216965 1.990613 0.084915
v 1.192463 1.990613 0.333686
v 1.119899 1.990613 0.572897
v 1.002062 1.990613 0.793356
v 0.843479 1.990613 0.986589
v 0.650246 1.990613 1.145172
v 0.429787 1.990613 1.263010
v 0.190576 1.990613 1.335573
v -0.058196 1.990613 1.360075
v -0.306967 1.990613 1.335573
v -0.546179 1.990613 1.263009
v -0.766637 1.990613 1.145171
v -0.959870 1.990613 0.986589
v -1.118453 1.990613 0.793355
v -1.236290 1.990613 0.572897
v -1.308854 1.990613 0.333685
v -1.333356 1.990613 0.084914
v -1.308854 1.990613 -0.163858
v -1.236289 1.990613 -0.403069
v -1.118452 1.990613 -0.623528
v -0.959869 1.990613 -0.816761
v -0.766635 1.990613 -0.975343
v -0.546176 1.990613 -1.093180
v -0.306965 1.990613 -1.165744
v 0.130735 -0.860439 -0.864899
v -0.058195 -0.860439 -0.883507
v 0.312404 -0.860439 -0.809791
v 0.479831 -0.860439 -0.720299
v 0.626583 -0.860439 -0.599863
v 0.747018 -0.860439 -0.453112
v 0.836510 -0.860439 -0.285684
v 0.891619 -0.860439 -0.104015
v 0.910227 -0.860439 0.084915
v 0.891619 -0.860439 0.273844
v 0.836510 -0.860439 0.455514
v 0.747018 -0.860439 0.622941
v 0.626583 -0.860439 0.769693
v 0.479831 -0.860439 0.890128
v 0.312404 -0.860439 0.979620
v 0.130734 -0.860439 1.034729
v -0.058196 -0.860439 1.053337
v -0.247125 -0.860439 1.034729
v -0.428795 -0.860439 0.979620
v -0.596222 -0.860439 0.890128
v -0.742974 -0.860439 0.769692
v -0.863409 -0.860439 0.622941
v -0.952901 -0.860439 0.455513
v -1.008010 -0.860439 0.273844
v -1.026617 -0.860439 0.084914
v -1.008009 -0.860439 -0.104016
v -0.952900 -0.860439 -0.285685
v -0.863408 -0.860439 -0.453113
v -0.742972 -0.860439 -0.599864
v -0.596221 -0.860439 -0.720300
v -0.428793 -0.860439 -0.809791
v -0.247124 -0.860439 -0.864900
v -0.058195 -0.860439 0.084915
v -0.058195 -0.973538 0.084915
vn 0.0974 -0.1105 -0.9891
vn 0.2885 -0.1105 -0.9511
vn 0.4685 -0.1105 -0.8765
vn 0.6305 -0.1105 -0.7683
vn 0.7683 -0.1105 -0.6305
vn 0.8765 -0.1105 -0.4685
vn 0.9511 -0.1105 -0.2885
vn 0.9891 -0.1105 -0.0974
vn 0.9891 -0.1105 0.0974
vn 0.9511 -0.1105 0.2885
vn 0.8765 -0.1105 0.4685
vn 0.7683 -0.1105 0.6305
vn 0.6305 -0.1105 0.7683
vn 0.4685 -0.1105 0.8765
vn 0.2885 -0.1105 0.9511
vn 0.0974 -0.1105 0.9891
vn -0.0974 -0.1105 0.9891
vn -0.2885 -0.1105 0.9511
vn -0.4685 -0.1105 0.8765
vn -0.6305 -0.1105 0.7683
vn -0.7683 -0.1105 0.6305
vn -0.8765 -0.1105 0.4685
vn -0.9511 -0.1105 0.2885
vn -0.9891 -0.1105 0.0974
vn -0.9891 -0.1105 -0.0974
vn -0.9511 -0.1105 -0.2885
vn -0.8765 -0.1105 -0.4685
vn -0.7683 -0.1105 -0.6305
vn -0.6305 -0.1105 -0.7683
vn -0.4685 -0.1105 -0.8765
vn 0.0000 1.0000 0.0000
vn -0.2885 -0.1105 -0.9511
vn -0.0974 -0.1105 -0.9891
vn 0.0975 0.1065 -0.9895
vn -0.0000 -1.0000 0.0000
vn -0.6308 0.1065 0.7686
vn 0.2886 0.1065 0.9515
vn 0.2886 0.1065 -0.9515
vn -0.7686 0.1065 0.6308
vn 0.0975 0.1065 0.9895
vn 0.4687 0.1065 -0.8769
vn -0.8769 0.1065 0.4687
vn 0.6308 0.1065 -0.7686
vn -0.9515 0.1065 0.2886
vn 0.7686 0.1065 -0.6308
vn -0.9895 0.1065 0.0975
vn 0.8769 0.1065 -0.4687
vn -0.9895 0.1065 -0.0975
vn 0.9515 0.1065 -0.2886
vn -0.9515 0.1065 -0.2886
vn 0.9895 0.1065 -0.0975
vn -0.8769 0.1065 -0.4687
vn 0.9895 0.1065 0.0975
vn -0.7686 0.1065 -0.6308
vn 0.9515 0.1065 0.2886
vn -0.6308 0.1065 -0.7686
vn 0.8769 0.1065 0.4687
vn -0.4687 0.1065 -0.8769
vn -0.0975 0.1065 0.9895
vn 0.7686 0.1065 0.6308
vn -0.2886 0.1065 -0.9515
vn -0.2886 0.1065 0.9515
vn 0.6308 0.1065 0.7686
vn -0.0975 0.1065 -0.9895
vn -0.4687 0.1065 0.8769
vn 0.4687 0.1065 0.8769
usemtl Material
s off
f 1//1 2//1 4//1 3//1
f 3//2 4//2 6//2 5//2
f 5//3 6//3 8//3 7//3
f 7//4 8//4 10//4 9//4
f 9//5 10//5 12//5 11//5
f 11//6 12//6 14//6 13//6
f 13//7 14//7 16//7 15//7
f 15//8 16//8 18//8 17//8
f 17//9 18//9 20//9 19//9
f 19//10 20//10 22//10 21//10
f 21//11 22//11 24//11 23//11
f 23//12 24//12 26//12 25//12
f 25//13 26//13 28//13 27//13
f 27//14 28//14 30//14 29//14
f 29//15 30//15 32//15 31//15
f 31//16 32//16 34//16 33//16
f 33//17 34//17 36//17 35//17
f 35//18 36//18 38//18 37//18
f 37//19 38//19 40//19 39//19
f 39//20 40//20 42//20 41//20
f 41//21 42//21 44//21 43//21
f 43//22 44//22 46//22 45//22
f 45//23 46//23 48//23 47//23
f 47//24 48//24 50//24 49//24
f 49//25 50//25 52//25 51//25
f 51//26 52//26 54//26 53//26
f 53//27 54//27 56//27 55//27
f 55//28 56//28 58//28 57//28
f 57//29 58//29 60//29 59//29
f 59//30 60//30 62//30 61//30
f 6//31 4//31 65//31 67//31
f 61//32 62//32 64//32 63//32
f 63//33 64//33 2//33 1//33
f 82//34 81//34 113//34 114//34
f 24//31 22//31 75//31 76//31
f 42//31 40//31 84//31 85//31
f 60//31 58//31 93//31 94//31
f 16//31 14//31 71//31 72//31
f 34//31 32//31 80//31 81//31
f 52//31 50//31 89//31 90//31
f 8//31 6//31 67//31 68//31
f 26//31 24//31 76//31 77//31
f 44//31 42//31 85//31 86//31
f 62//31 60//31 94//31 95//31
f 18//31 16//31 72//31 73//31
f 36//31 34//31 81//31 82//31
f 54//31 52//31 90//31 91//31
f 10//31 8//31 68//31 69//31
f 28//31 26//31 77//31 78//31
f 46//31 44//31 86//31 87//31
f 64//31 62//31 95//31 96//31
f 20//31 18//31 73//31 74//31
f 38//31 36//31 82//31 83//31
f 56//31 54//31 91//31 92//31
f 12//31 10//31 69//31 70//31
f 30//31 28//31 78//31 79//31
f 48//31 46//31 87//31 88//31
f 4//31 2//31 66//31 65//31
f 2//31 64//31 96//31 66//31
f 22//31 20//31 74//31 75//31
f 40//31 38//31 83//31 84//31
f 58//31 56//31 92//31 93//31
f 14//31 12//31 70//31 71//31
f 32//31 30//31 79//31 80//31
f 50//31 48//31 88//31 89//31
f 1//35 3//35 130//35
f 69//36 68//36 100//36 101//36
f 96//37 95//37 127//37 128//37
f 83//38 82//38 114//38 115//38
f 70//39 69//39 101//39 102//39
f 66//40 96//40 128//40 98//40
f 84//41 83//41 115//41 116//41
f 71//42 70//42 102//42 103//42
f 85//43 84//43 116//43 117//43
f 72//44 71//44 103//44 104//44
f 86//45 85//45 117//45 118//45
f 73//46 72//46 104//46 105//46
f 87//47 86//47 118//47 119//47
f 74//48 73//48 105//48 106//48
f 88//49 87//49 119//49 120//49
f 75//50 74//50 106//50 107//50
f 89//51 88//51 120//51 121//51
f 76//52 75//52 107//52 108//52
f 90//53 89//53 121//53 122//53
f 77//54 76//54 108//54 109//54
f 91//55 90//55 122//55 123//55
f 78//56 77//56 109//56 110//56
f 92//57 91//57 123//57 124//57
f 79//58 78//58 110//58 111//58
f 65//59 66//59 98//59 97//59
f 93//60 92//60 124//60 125//60
f 80//61 79//61 111//61 112//61
f 67//62 65//62 97//62 99//62
f 94//63 93//63 125//63 126//63
f 81//64 80//64 112//64 113//64
f 68//65 67//65 99//65 100//65
f 95//66 94//66 126//66 127//66
f 97//31 98//31 129//31
f 98//31 128//31 129//31
f 128//31 127//31 129//31
f 127//31 126//31 129//31
f 126//31 125//31 129//31
f 125//31 124//31 129//31
f 124//31 123//31 129//31
f 123//31 122//31 129//31
f 122//31 121//31 129//31
f 121//31 120//31 129//31
f 120//31 119//31 129//31
f 119//31 118//31 129//31
f 118//31 117//31 129//31
f 117//31 116//31 129//31
f 116//31 115//31 129//31
f 115//31 114//31 129//31
f 114//31 113//31 129//31
f 113//31 112//31 129//31
f 112//31 111//31 129//31
f 111//31 110//31 129//31
f 110//31 109//31 129//31
f 109//31 108//31 129//31
f 108//31 107//31 129//31
f 107//31 106//31 129//31
f 106//31 105//31 129//31
f 105//31 104//31 129//31
f 104//31 103//31 129//31
f 103//31 102//31 129//31
f 102//31 101//31 129//31
f 101//31 100//31 129//31
f 100//31 99//31 129//31
f 99//31 97//31 129//31
f 3//35 5//35 130//35
f 5//35 7//35 130//35
f 7//35 9//35 130//35
f 9//35 11//35 130//35
f 11//35 13//35 130//35
f 13//35 15//35 130//35
f 15//35 17//35 130//35
f 17//35 19//35 130//35
f 19//35 21//35 130//35
f 21//35 23//35 130//35
f 23//35 25//35 130//35
f 25//35 27//35 130//35
f 27//35 29//35 130//35
f 29//35 31//35 130//35
f 31//35 33//35 130//35
f 33//35 35//35 130//35
f 35//35 37//35 130//35
f 37//35 39//35 130//35
f 39//35 41//35 130//35
f 41//35 43//35 130//35
f 43//35 45//35 130//35
f 45//35 47//35 130//35
f 47//35 49//35 130//35
f 49//35 51//35 130//35
f 51//35 53//35 130//35
f 53//35 55//35 130//35
f 55//35 57//35 130//35
f 57//35 59//35 130//35
f 59//35 61//35 130//35
f 61//35 63//35 130//35
f 63//35 1//35 130//35
