# Blender v2.78 (sub 0) OBJ File: 'liquid.blend'
# www.blender.org
mtllib liquid.mtl
o Cylinder.001
v 0.122542 -0.829029 -0.823711
v 0.182392 1.917039 -1.124598
v 0.712100 -0.829029 -0.429780
v 0.967180 1.917039 -0.600219
v 0.850430 -0.829029 0.265651
v 1.151318 1.917039 0.325502
v 0.456500 -0.829029 0.855210
v 0.626939 1.917039 1.110290
v -0.238932 -0.829029 0.993540
v -0.298783 1.917039 1.294428
v -0.828491 -0.829029 0.599609
v -1.083571 1.917039 0.770048
v -0.966821 -0.829029 -0.095823
v -1.267708 1.917039 -0.155674
v -0.572889 -0.829029 -0.685382
v -0.743328 1.917039 -0.940462
v -0.058195 1.917039 0.084915
v -0.058195 -0.829029 0.084915
vt 0.6393 0.3551
vt 0.7584 0.3551
vt 0.7328 0.7101
vt 0.6434 0.7101
vt 0.8810 0.0000
vt 1.0000 0.0001
vt 0.9744 0.3550
vt 0.8849 0.3550
vt 0.3235 0.3552
vt 0.4332 0.3551
vt 0.4370 0.7101
vt 0.3546 0.7102
vt 0.5522 0.3552
vt 0.5265 0.7102
vt 0.3235 0.0001
vt 0.4332 0.0000
vt 0.4371 0.3550
vt 0.3547 0.3551
vt 0.5522 0.0001
vt 0.5265 0.3550
vt 0.6562 0.1776
vt 0.3281 0.7946
vt 0.3874 0.7237
vt 0.4450 0.8293
vt 0.4804 0.7147
vt 0.3373 0.8858
vt 0.5526 0.7729
vt 0.5618 0.8641
vt 0.5025 0.9349
vt 0.4095 0.9439
vn 0.9756 -0.1027 -0.1941
vn 0.1941 -0.1027 0.9756
vn -0.5526 -0.1027 0.8271
vn -0.9756 -0.1027 0.1941
vn -0.8271 -0.1027 -0.5526
vn -0.1941 -0.1027 -0.9756
vn 0.0000 1.0000 0.0000
vn -0.0000 -1.0000 0.0000
vn 0.5526 -0.1027 -0.8271
vn 0.8271 -0.1027 0.5526
usemtl Material
s off
f 4/1/1 6/2/1 5/3/1 3/4/1
f 8/5/2 10/6/2 9/7/2 7/8/2
f 10/9/3 12/10/3 11/11/3 9/12/3
f 12/10/4 14/13/4 13/14/4 11/11/4
f 14/15/5 16/16/5 15/17/5 13/18/5
f 16/16/6 2/19/6 1/20/6 15/17/6
f 6/2/7 4/1/7 17/21/7
f 10/6/7 8/5/7 17/21/7
f 3/22/8 5/23/8 18/24/8
f 5/23/8 7/25/8 18/24/8
f 1/26/8 3/22/8 18/24/8
f 4/1/7 2/19/7 17/21/7
f 2/19/7 16/16/7 17/21/7
f 16/16/7 14/13/7 17/21/7
f 14/13/7 12/10/7 17/21/7
f 12/10/7 10/6/7 17/21/7
f 8/5/7 6/2/7 17/21/7
f 2/19/9 4/1/9 3/4/9 1/20/9
f 7/25/8 9/27/8 18/24/8
f 9/27/8 11/28/8 18/24/8
f 11/28/8 13/29/8 18/24/8
f 13/29/8 15/30/8 18/24/8
f 15/30/8 1/26/8 18/24/8
f 6/2/10 8/5/10 7/8/10 5/3/10
